<?xml version="1.0" encoding="UTF-8"?>
<svg id="Layer_1" data-name="Layer 1" xmlns="http://www.w3.org/2000/svg" viewBox="0 0 1000 1338.43">
  <defs>
    <style>
      .cls-1 {
        fill: #fff;
      }

      .cls-2 {
        fill: #231f20;
      }

      .cls-3 {
        fill: none;
        stroke: #231f20;
        stroke-width: 50px;
      }

      .cls-4 {
        fill: #11d499;
      }
    </style>
  </defs>
  <g>
    <path class="cls-4" d="M500,1205.97c-65.82,0-129.66-12.89-189.75-38.3-58.05-24.55-110.19-59.71-154.96-104.48-44.77-44.78-79.93-96.91-104.48-154.96-25.42-60.09-38.31-123.94-38.31-189.75s12.89-129.66,38.31-189.75c24.55-58.05,59.71-110.19,104.48-154.96,44.78-44.77,96.91-79.93,154.96-104.48,60.09-25.42,123.94-38.31,189.75-38.31s129.66,12.89,189.75,38.31c58.05,24.55,110.19,59.71,154.96,104.48,44.78,44.78,79.93,96.91,104.48,154.96,25.42,60.09,38.3,123.94,38.3,189.75s-12.89,129.66-38.3,189.75c-24.55,58.05-59.71,110.19-104.48,154.96s-96.91,79.93-154.96,104.48c-60.09,25.42-123.94,38.3-189.75,38.3Z"/>
    <path class="cls-2" d="M500,243.47c64.14,0,126.34,12.56,184.88,37.32,56.56,23.92,107.36,58.18,150.99,101.81,43.63,43.63,77.88,94.43,101.81,150.99,24.76,58.54,37.32,120.75,37.32,184.88s-12.56,126.34-37.32,184.88c-23.92,56.56-58.18,107.36-101.81,150.99-43.63,43.63-94.43,77.88-150.99,101.81-58.54,24.76-120.75,37.32-184.88,37.32s-126.34-12.56-184.88-37.32c-56.56-23.92-107.36-58.18-150.99-101.81-43.63-43.63-77.88-94.43-101.81-150.99-24.76-58.54-37.32-120.75-37.32-184.88s12.56-126.34,37.32-184.88c23.92-56.56,58.18-107.36,101.81-150.99,43.63-43.63,94.43-77.88,150.99-101.81,58.54-24.76,120.75-37.32,184.88-37.32M500,218.47C223.86,218.47,0,442.33,0,718.47s223.86,500,500,500,500-223.86,500-500-223.86-500-500-500h0Z"/>
  </g>
  <g>
    <path class="cls-1" d="M477.71,677.56l-29.57,120-104.14-36.43v327.86h-120.86v-396.86l82.71-78.86,171.86,64.29ZM457.14,459.85c35.42-42,81-63.28,136.71-63.86,36.28-.28,68.85,8.86,97.71,27.43,28.29,17.72,50.57,42.43,66.86,74.14,16.29,32.29,25,68.72,26.14,109.29,1.14,40.57-5.43,77.72-19.71,111.43-14.29,33.72-34.71,60-61.29,78.86-27.72,20-59.72,30-96,30-25.15,0-53.72-3.28-85.71-9.86-21.43-4.86-42.86-10.43-64.29-16.71-20.86-6.57-38.57-16.14-53.14-28.71-12.86-11.71-21.29-24.14-25.29-37.29-1.15-4.29-1.43-8.28-.86-12l17.57-111.43c9.14-62.57,29.57-113,61.29-151.29ZM653.43,673.71c8.57-14.85,12.71-36,12.43-63.43-.29-15.71-3.15-30.14-8.57-43.29-5.72-14.28-13.57-25.43-23.57-33.43-10.86-8.57-23.72-12.86-38.57-12.86-21.15,0-38.57,8.43-52.29,25.29-12.29,15.43-21.43,37.86-27.43,67.29-.58,3.72-2.72,13.57-6.43,29.57-3.43,15.43-6,26.43-7.71,33-.29.86-.43,1.57-.43,2.14,13.43,6.58,28.86,11.57,46.29,15,18.86,4,39.14,6,60.86,6s36-8.42,45.43-25.29Z"/>
    <path class="cls-3" d="M477.71,677.56l-29.57,120-104.14-36.43v327.86h-120.86v-396.86l82.71-78.86,171.86,64.29ZM457.14,459.85c35.42-42,81-63.28,136.71-63.86,36.28-.28,68.85,8.86,97.71,27.43,28.29,17.72,50.57,42.43,66.86,74.14,16.29,32.29,25,68.72,26.14,109.29,1.14,40.57-5.43,77.72-19.71,111.43-14.29,33.72-34.71,60-61.29,78.86-27.72,20-59.72,30-96,30-25.15,0-53.72-3.28-85.71-9.86-21.43-4.86-42.86-10.43-64.29-16.71-20.86-6.57-38.57-16.14-53.14-28.71-12.86-11.71-21.29-24.14-25.29-37.29-1.15-4.29-1.43-8.28-.86-12l17.57-111.43c9.14-62.57,29.57-113,61.29-151.29ZM653.43,673.71c8.57-14.85,12.71-36,12.43-63.43-.29-15.71-3.15-30.14-8.57-43.29-5.72-14.28-13.57-25.43-23.57-33.43-10.86-8.57-23.72-12.86-38.57-12.86-21.15,0-38.57,8.43-52.29,25.29-12.29,15.43-21.43,37.86-27.43,67.29-.58,3.72-2.72,13.57-6.43,29.57-3.43,15.43-6,26.43-7.71,33-.29.86-.43,1.57-.43,2.14,13.43,6.58,28.86,11.57,46.29,15,18.86,4,39.14,6,60.86,6s36-8.42,45.43-25.29Z"/>
    <path class="cls-1" d="M477.71,677.56l-29.57,120-104.14-36.43v327.86h-120.86v-396.86l82.71-78.86,171.86,64.29ZM457.14,459.85c35.42-42,81-63.28,136.71-63.86,36.28-.28,68.85,8.86,97.71,27.43,28.29,17.72,50.57,42.43,66.86,74.14,16.29,32.29,25,68.72,26.14,109.29,1.14,40.57-5.43,77.72-19.71,111.43-14.29,33.72-34.71,60-61.29,78.86-27.72,20-59.72,30-96,30-25.15,0-53.72-3.28-85.71-9.86-21.43-4.86-42.86-10.43-64.29-16.71-20.86-6.57-38.57-16.14-53.14-28.71-12.86-11.71-21.29-24.14-25.29-37.29-1.15-4.29-1.43-8.28-.86-12l17.57-111.43c9.14-62.57,29.57-113,61.29-151.29ZM653.43,673.71c8.57-14.85,12.71-36,12.43-63.43-.29-15.71-3.15-30.14-8.57-43.29-5.72-14.28-13.57-25.43-23.57-33.43-10.86-8.57-23.72-12.86-38.57-12.86-21.15,0-38.57,8.43-52.29,25.29-12.29,15.43-21.43,37.86-27.43,67.29-.58,3.72-2.72,13.57-6.43,29.57-3.43,15.43-6,26.43-7.71,33-.29.86-.43,1.57-.43,2.14,13.43,6.58,28.86,11.57,46.29,15,18.86,4,39.14,6,60.86,6s36-8.42,45.43-25.29Z"/>
  </g>
</svg>